<svg xmlns="http://www.w3.org/2000/svg" viewBox="0 0 1200 500" width="1200" height="500">
  <defs>
    <linearGradient id="bg" x1="0" y1="0" x2="1" y2="1">
      <stop offset="0" stop-color="#eef0ee"/><stop offset="1" stop-color="#d3d9d4"/>
    </linearGradient>
  </defs>
  <rect width="1200" height="500" fill="url(#bg)"/>
  <path d="M-30 260 l45 45 l-45 45 l-45 -45 Z" fill="#48544e" opacity="0.10"/>
              <path d="M-30 278 l27 27 l-27 27 l-27 -27 Z" fill="#aab8b0" opacity="0.12"/><path d="M80 60 l45 45 l-45 45 l-45 -45 Z" fill="#48544e" opacity="0.10"/>
              <path d="M80 78 l27 27 l-27 27 l-27 -27 Z" fill="#aab8b0" opacity="0.12"/><path d="M190 260 l45 45 l-45 45 l-45 -45 Z" fill="#48544e" opacity="0.10"/>
              <path d="M190 278 l27 27 l-27 27 l-27 -27 Z" fill="#aab8b0" opacity="0.12"/><path d="M300 60 l45 45 l-45 45 l-45 -45 Z" fill="#48544e" opacity="0.10"/>
              <path d="M300 78 l27 27 l-27 27 l-27 -27 Z" fill="#aab8b0" opacity="0.12"/><path d="M410 260 l45 45 l-45 45 l-45 -45 Z" fill="#48544e" opacity="0.10"/>
              <path d="M410 278 l27 27 l-27 27 l-27 -27 Z" fill="#aab8b0" opacity="0.12"/><path d="M520 60 l45 45 l-45 45 l-45 -45 Z" fill="#48544e" opacity="0.10"/>
              <path d="M520 78 l27 27 l-27 27 l-27 -27 Z" fill="#aab8b0" opacity="0.12"/><path d="M630 260 l45 45 l-45 45 l-45 -45 Z" fill="#48544e" opacity="0.10"/>
              <path d="M630 278 l27 27 l-27 27 l-27 -27 Z" fill="#aab8b0" opacity="0.12"/><path d="M740 60 l45 45 l-45 45 l-45 -45 Z" fill="#48544e" opacity="0.10"/>
              <path d="M740 78 l27 27 l-27 27 l-27 -27 Z" fill="#aab8b0" opacity="0.12"/><path d="M850 260 l45 45 l-45 45 l-45 -45 Z" fill="#48544e" opacity="0.10"/>
              <path d="M850 278 l27 27 l-27 27 l-27 -27 Z" fill="#aab8b0" opacity="0.12"/><path d="M960 60 l45 45 l-45 45 l-45 -45 Z" fill="#48544e" opacity="0.10"/>
              <path d="M960 78 l27 27 l-27 27 l-27 -27 Z" fill="#aab8b0" opacity="0.12"/><path d="M1070 260 l45 45 l-45 45 l-45 -45 Z" fill="#48544e" opacity="0.10"/>
              <path d="M1070 278 l27 27 l-27 27 l-27 -27 Z" fill="#aab8b0" opacity="0.12"/><path d="M1180 60 l45 45 l-45 45 l-45 -45 Z" fill="#48544e" opacity="0.10"/>
              <path d="M1180 78 l27 27 l-27 27 l-27 -27 Z" fill="#aab8b0" opacity="0.12"/>
  <g transform="translate(890,40) scale(0.52)" opacity="0.9">
    <circle cx="300" cy="150" r="34" fill="#6a7b74"/>
    
    <path d="M255 195 Q300 240 345 195 L362 218 Q356 300 342 375 L258 375 Q244 300 238 218 Z" fill="#6a7b74"/>
    <path d="M258 375 L342 375 Q412 545 432 668 Q300 716 168 668 Q188 545 258 375 Z" fill="#6a7b74"/>
    <path d="M238 218 L200 320 Q214 334 236 328 L256 240 Z" fill="#6a7b74" opacity="0.92"/>
    <path d="M362 218 L400 320 Q386 334 364 328 L344 240 Z" fill="#6a7b74" opacity="0.92"/>
  </g>
  <rect x="0" y="430" width="1200" height="70" fill="#6a7b74" opacity="0.12"/>
</svg>