<svg xmlns="http://www.w3.org/2000/svg" viewBox="0 0 600 800" width="600" height="800">
  <defs>
    <linearGradient id="bg" x1="0" y1="0" x2="0" y2="1">
      <stop offset="0" stop-color="#f3ebe1"/><stop offset="1" stop-color="#e0d0bb"/>
    </linearGradient>
  </defs>
  <rect width="600" height="800" fill="url(#bg)"/>
  <defs><g id="dmd"><path d="M50 12 L88 50 L50 88 L12 50 Z" fill="#8a6248" opacity="0.10"/><path d="M50 30 L70 50 L50 70 L30 50 Z" fill="#8a6248" opacity="0.14"/></g></defs><use href="#dmd" x="0" y="0"/><use href="#dmd" x="100" y="0"/><use href="#dmd" x="200" y="0"/><use href="#dmd" x="300" y="0"/><use href="#dmd" x="400" y="0"/><use href="#dmd" x="500" y="0"/><use href="#dmd" x="50" y="100"/><use href="#dmd" x="150" y="100"/><use href="#dmd" x="250" y="100"/><use href="#dmd" x="350" y="100"/><use href="#dmd" x="450" y="100"/><use href="#dmd" x="550" y="100"/><use href="#dmd" x="0" y="200"/><use href="#dmd" x="100" y="200"/><use href="#dmd" x="200" y="200"/><use href="#dmd" x="300" y="200"/><use href="#dmd" x="400" y="200"/><use href="#dmd" x="500" y="200"/><use href="#dmd" x="50" y="300"/><use href="#dmd" x="150" y="300"/><use href="#dmd" x="250" y="300"/><use href="#dmd" x="350" y="300"/><use href="#dmd" x="450" y="300"/><use href="#dmd" x="550" y="300"/><use href="#dmd" x="0" y="400"/><use href="#dmd" x="100" y="400"/><use href="#dmd" x="200" y="400"/><use href="#dmd" x="300" y="400"/><use href="#dmd" x="400" y="400"/><use href="#dmd" x="500" y="400"/><use href="#dmd" x="50" y="500"/><use href="#dmd" x="150" y="500"/><use href="#dmd" x="250" y="500"/><use href="#dmd" x="350" y="500"/><use href="#dmd" x="450" y="500"/><use href="#dmd" x="550" y="500"/><use href="#dmd" x="0" y="600"/><use href="#dmd" x="100" y="600"/><use href="#dmd" x="200" y="600"/><use href="#dmd" x="300" y="600"/><use href="#dmd" x="400" y="600"/><use href="#dmd" x="500" y="600"/><use href="#dmd" x="50" y="700"/><use href="#dmd" x="150" y="700"/><use href="#dmd" x="250" y="700"/><use href="#dmd" x="350" y="700"/><use href="#dmd" x="450" y="700"/><use href="#dmd" x="550" y="700"/>
  <circle cx="300" cy="150" r="0" fill="#6b4a35" opacity="0.95"/>
  
    <ellipse cx="300" cy="168" rx="34" ry="38" fill="#6b4a35" opacity="0.95"/>
    <path d="M252 210 Q300 238 348 210 L374 260 Q380 480 372 690 Q300 718 228 690 Q220 480 226 260 Z" fill="#6b4a35"/>
    <path d="M226 260 L188 400 Q202 414 222 406 L244 292 Z" fill="#6b4a35" opacity="0.92"/>
    <path d="M374 260 L412 400 Q398 414 378 406 L356 292 Z" fill="#6b4a35" opacity="0.92"/>
  <path d="M255 236 q45 26 90 0" stroke="#b08d6a" stroke-width="7" fill="none" stroke-linecap="round" opacity="0.9"/>
  <rect x="0" y="770" width="600" height="30" fill="#6b4a35" opacity="0.15"/>
</svg>