<svg xmlns="http://www.w3.org/2000/svg" viewBox="0 0 600 800" width="600" height="800">
  <defs>
    <linearGradient id="bg" x1="0" y1="0" x2="0" y2="1">
      <stop offset="0" stop-color="#f7f0ea"/><stop offset="1" stop-color="#ecdfd2"/>
    </linearGradient>
  </defs>
  <rect width="600" height="800" fill="url(#bg)"/>
  <path d="M80 111 L82.5 117.5 L89 120 L82.5 122.5 L80 129 L77.5 122.5 L71 120 L77.5 117.5 Z" fill="#b59b7e" opacity="0.35"/><path d="M510 81 L512.5 87.5 L519 90 L512.5 92.5 L510 99 L507.5 92.5 L501 90 L507.5 87.5 Z" fill="#b59b7e" opacity="0.35"/><path d="M140 611 L142.5 617.5 L149 620 L142.5 622.5 L140 629 L137.5 622.5 L131 620 L137.5 617.5 Z" fill="#b59b7e" opacity="0.35"/><path d="M470 551 L472.5 557.5 L479 560 L472.5 562.5 L470 569 L467.5 562.5 L461 560 L467.5 557.5 Z" fill="#b59b7e" opacity="0.35"/><path d="M90 391 L92.5 397.5 L99 400 L92.5 402.5 L90 409 L87.5 402.5 L81 400 L87.5 397.5 Z" fill="#b59b7e" opacity="0.35"/><path d="M520 321 L522.5 327.5 L529 330 L522.5 332.5 L520 339 L517.5 332.5 L511 330 L517.5 327.5 Z" fill="#b59b7e" opacity="0.35"/><path d="M300 71 L302.5 77.5 L309 80 L302.5 82.5 L300 89 L297.5 82.5 L291 80 L297.5 77.5 Z" fill="#b59b7e" opacity="0.35"/><path d="M210 711 L212.5 717.5 L219 720 L212.5 722.5 L210 729 L207.5 722.5 L201 720 L207.5 717.5 Z" fill="#b59b7e" opacity="0.35"/><path d="M420 721 L422.5 727.5 L429 730 L422.5 732.5 L420 739 L417.5 732.5 L411 730 L417.5 727.5 Z" fill="#b59b7e" opacity="0.35"/><path d="M540 691 L542.5 697.5 L549 700 L542.5 702.5 L540 709 L537.5 702.5 L531 700 L537.5 697.5 Z" fill="#b59b7e" opacity="0.35"/>
  <circle cx="300" cy="150" r="34" fill="#e8ddd0" opacity="0.95"/>
  
    <path d="M262 190 Q300 228 338 190 L352 212 Q348 296 336 368 L264 368 Q252 296 248 212 Z" fill="#e8ddd0"/>
    <path d="M264 368 L336 368 Q372 520 396 700 Q300 736 204 700 Q228 520 264 368 Z" fill="#e8ddd0"/>
    <path d="M300 368 L312 700" stroke="rgba(255,255,255,0.25)" stroke-width="3" fill="none"/>
  <path d="M255 214 q45 26 90 0" stroke="#c9a227" stroke-width="7" fill="none" stroke-linecap="round" opacity="0.9"/>
  <rect x="0" y="770" width="600" height="30" fill="#e8ddd0" opacity="0.15"/>
</svg>